<svg width="96" height="96" viewBox="0 0 96 96" fill="none" xmlns="http://www.w3.org/2000/svg">
<circle cx="48" cy="48" r="37" stroke="#2D5A86" stroke-width="4"/>
<path d="M63.7433 31.3741L51.8881 46.0519H59.4207C59.9649 46.0519 60.4868 46.265 60.8716 46.6444C61.2564 47.0238 61.4726 47.5384 61.4726 48.0749C61.4726 48.6114 61.2564 49.126 60.8716 49.5053C60.4868 49.8847 59.9649 50.0979 59.4207 50.0979H49.6173V56.8411H59.4207C59.9649 56.8411 60.4868 57.0542 60.8716 57.4336C61.2564 57.813 61.4726 58.3276 61.4726 58.8641C61.4726 59.4006 61.2564 59.9152 60.8716 60.2945C60.4868 60.6739 59.9649 60.8871 59.4207 60.8871H49.6173V67.8551C49.6173 68.3916 49.4012 68.9062 49.0164 69.2855C48.6316 69.6649 48.1097 69.8781 47.5655 69.8781C47.0213 69.8781 46.4994 69.6649 46.1146 69.2855C45.7298 68.9062 45.5136 68.3916 45.5136 67.8551V60.8871H35.7102C35.1661 60.8871 34.6442 60.6739 34.2594 60.2945C33.8746 59.9152 33.6584 59.4006 33.6584 58.8641C33.6584 58.3276 33.8746 57.813 34.2594 57.4336C34.6442 57.0542 35.1661 56.8411 35.7102 56.8411H45.5136V50.0979H35.7102C35.1661 50.0979 34.6442 49.8847 34.2594 49.5053C33.8746 49.126 33.6584 48.6114 33.6584 48.0749C33.6584 47.5384 33.8746 47.0238 34.2594 46.6444C34.6442 46.265 35.1661 46.0519 35.7102 46.0519H43.236L31.3808 31.3741C31.2008 31.1698 31.0642 30.932 30.9791 30.6747C30.894 30.4174 30.8621 30.1459 30.8853 29.8763C30.9085 29.6067 30.9863 29.3444 31.1142 29.1049C31.2421 28.8655 31.4174 28.6537 31.6297 28.4823C31.8421 28.3108 32.0872 28.1831 32.3505 28.1067C32.6138 28.0303 32.89 28.0068 33.1627 28.0375C33.4354 28.0682 33.699 28.1525 33.9381 28.2855C34.1771 28.4185 34.3867 28.5974 34.5544 28.8116L47.5655 44.8819L60.5697 28.8117C60.9199 28.4143 61.4133 28.1672 61.9452 28.1226C62.4772 28.0781 63.0058 28.2398 63.4188 28.5733C63.8318 28.9068 64.0968 29.3858 64.1574 29.9088C64.2179 30.4317 64.0694 30.9574 63.7433 31.3741Z" fill="#2D5A86"/>
</svg>
